{
	"asset":{
		"generator":"Khronos glTF Blender I/O v4.3.47",
		"version":"2.0"
	},
	"extensionsUsed":[
		"KHR_materials_specular",
		"KHR_materials_ior"
	],
	"scene":0,
	"scenes":[
		{
			"name":"Scene",
			"nodes":[
				0,
				1,
				2,
				3
			]
		}
	],
	"nodes":[
		{
			"mesh":0,
			"name":"Plane.005",
			"scale":[
				142.9043426513672,
				142.9043426513672,
				142.9043426513672
			],
			"translation":[
				0,
				-3.3979687690734863,
				24.992170333862305
			]
		},
		{
			"mesh":1,
			"name":"Cube.004",
			"scale":[
				3.7852425575256348,
				0.7618375420570374,
				1.1212924718856812
			],
			"translation":[
				3.4008469581604004,
				-2.691551685333252,
				-0.15806341171264648
			]
		},
		{
			"mesh":2,
			"name":"Cube.011",
			"rotation":[
				0,
				0.7071068286895752,
				0,
				0.7071068286895752
			],
			"scale":[
				3.9184463024139404,
				4.255032062530518,
				2.6651153564453125
			],
			"translation":[
				2.813678741455078,
				11.494498252868652,
				-0.17038488388061523
			]
		},
		{
			"mesh":3,
			"name":"Gear",
			"rotation":[
				0,
				0,
				0.7071068286895752,
				0.7071068286895752
			],
			"scale":[
				0.21440282464027405,
				0.39885658025741577,
				0.21440282464027405
			],
			"translation":[
				-10.672090530395508,
				-2.1419596672058105,
				-0.15806341171264648
			]
		}
	],
	"materials":[
		{
			"doubleSided":true,
			"extensions":{
				"KHR_materials_specular":{
					"specularFactor":0
				},
				"KHR_materials_ior":{
					"ior":1.4500000476837158
				}
			},
			"name":"Material.102",
			"pbrMetallicRoughness":{
				"baseColorFactor":[
					0.2058449536561966,
					0.44631004333496094,
					0.49584099650382996,
					1
				],
				"metallicFactor":0,
				"roughnessFactor":0
			}
		},
		{
			"doubleSided":true,
			"extensions":{
				"KHR_materials_specular":{
					"specularFactor":0
				},
				"KHR_materials_ior":{
					"ior":1.4500000476837158
				}
			},
			"name":"Material.060",
			"pbrMetallicRoughness":{
				"baseColorFactor":[
					0.800000011920929,
					0.800000011920929,
					0.800000011920929,
					1
				],
				"metallicFactor":0,
				"roughnessFactor":0.5
			}
		},
		{
			"doubleSided":true,
			"extensions":{
				"KHR_materials_specular":{
					"specularFactor":0
				},
				"KHR_materials_ior":{
					"ior":1.4500000476837158
				}
			},
			"name":"Material.075",
			"pbrMetallicRoughness":{
				"baseColorFactor":[
					0.33629509806632996,
					0.057609546929597855,
					0.05626703426241875,
					1
				],
				"metallicFactor":0,
				"roughnessFactor":0.5
			}
		},
		{
			"doubleSided":true,
			"extensions":{
				"KHR_materials_specular":{
					"specularFactor":0
				},
				"KHR_materials_ior":{
					"ior":1.4500000476837158
				}
			},
			"name":"Material.084",
			"pbrMetallicRoughness":{
				"baseColorFactor":[
					0.054339587688446045,
					0.4043549597263336,
					0.04045802354812622,
					1
				],
				"metallicFactor":0,
				"roughnessFactor":0.5
			}
		},
		{
			"doubleSided":true,
			"extensions":{
				"KHR_materials_specular":{
					"specularFactor":0
				},
				"KHR_materials_ior":{
					"ior":1.4500000476837158
				}
			},
			"name":"Material.085",
			"pbrMetallicRoughness":{
				"baseColorFactor":[
					0.04222353175282478,
					0.11331471800804138,
					0.8000000715255737,
					1
				],
				"metallicFactor":0,
				"roughnessFactor":0.5
			}
		},
		{
			"doubleSided":true,
			"extensions":{
				"KHR_materials_specular":{
					"specularFactor":0
				},
				"KHR_materials_ior":{
					"ior":1.4500000476837158
				}
			},
			"name":"Material.086",
			"pbrMetallicRoughness":{
				"baseColorFactor":[
					0.8000000715255737,
					0.5752619504928589,
					0,
					1
				],
				"metallicFactor":0,
				"roughnessFactor":0.5
			}
		},
		{
			"doubleSided":true,
			"extensions":{
				"KHR_materials_specular":{
					"specularFactor":0
				},
				"KHR_materials_ior":{
					"ior":1.4500000476837158
				}
			},
			"name":"Material.088",
			"pbrMetallicRoughness":{
				"baseColorFactor":[
					0.3493237793445587,
					0.3493237793445587,
					0.3493237793445587,
					1
				],
				"metallicFactor":0,
				"roughnessFactor":0.5
			}
		},
		{
			"doubleSided":true,
			"name":"Material.089",
			"pbrMetallicRoughness":{
				"metallicFactor":0,
				"roughnessFactor":0.5
			}
		},
		{
			"doubleSided":true,
			"name":"Material.090",
			"pbrMetallicRoughness":{
				"baseColorFactor":[
					0,
					0,
					0,
					1
				],
				"metallicFactor":0,
				"roughnessFactor":0.5
			}
		},
		{
			"doubleSided":true,
			"name":"Material.091",
			"pbrMetallicRoughness":{
				"baseColorFactor":[
					0.31729114055633545,
					0.31729114055633545,
					0.31729114055633545,
					1
				],
				"metallicFactor":0,
				"roughnessFactor":0.5
			}
		},
		{
			"doubleSided":true,
			"name":"Material.055",
			"pbrMetallicRoughness":{
				"baseColorFactor":[
					0,
					0,
					0,
					1
				],
				"metallicFactor":0,
				"roughnessFactor":0.5
			}
		},
		{
			"doubleSided":true,
			"name":"Material.058",
			"pbrMetallicRoughness":{
				"baseColorFactor":[
					1,
					0,
					0,
					1
				],
				"metallicFactor":0,
				"roughnessFactor":0.5
			}
		},
		{
			"doubleSided":true,
			"name":"Material.059",
			"pbrMetallicRoughness":{
				"baseColorFactor":[
					0.9729999899864197,
					0.35600000619888306,
					0.2460000067949295,
					1
				],
				"metallicFactor":0.17616581916809082,
				"roughnessFactor":0.10000000149011612
			}
		},
		{
			"doubleSided":true,
			"name":"Material.087",
			"pbrMetallicRoughness":{
				"baseColorFactor":[
					0.800000011920929,
					0.800000011920929,
					0.800000011920929,
					1
				],
				"metallicFactor":0,
				"roughnessFactor":0.5
			}
		},
		{
			"doubleSided":true,
			"name":"Material.092",
			"pbrMetallicRoughness":{
				"baseColorFactor":[
					0.26410385966300964,
					0.26410385966300964,
					0.26410385966300964,
					1
				],
				"metallicFactor":0,
				"roughnessFactor":0.5
			}
		}
	],
	"meshes":[
		{
			"name":"Plane.004",
			"primitives":[
				{
					"attributes":{
						"POSITION":0,
						"NORMAL":1,
						"TEXCOORD_0":2
					},
					"indices":3,
					"material":0
				}
			]
		},
		{
			"name":"Cube.015",
			"primitives":[
				{
					"attributes":{
						"POSITION":4,
						"NORMAL":5,
						"TEXCOORD_0":6
					},
					"indices":7,
					"material":1
				},
				{
					"attributes":{
						"POSITION":8,
						"NORMAL":9,
						"TEXCOORD_0":10
					},
					"indices":11,
					"material":2
				},
				{
					"attributes":{
						"POSITION":12,
						"NORMAL":13,
						"TEXCOORD_0":14
					},
					"indices":15,
					"material":3
				},
				{
					"attributes":{
						"POSITION":16,
						"NORMAL":17,
						"TEXCOORD_0":18
					},
					"indices":19,
					"material":4
				},
				{
					"attributes":{
						"POSITION":20,
						"NORMAL":21,
						"TEXCOORD_0":22
					},
					"indices":23,
					"material":5
				},
				{
					"attributes":{
						"POSITION":24,
						"NORMAL":25,
						"TEXCOORD_0":26
					},
					"indices":27,
					"material":6
				}
			]
		},
		{
			"name":"Cube.023",
			"primitives":[
				{
					"attributes":{
						"POSITION":28,
						"NORMAL":29,
						"TEXCOORD_0":30
					},
					"indices":31,
					"material":7
				},
				{
					"attributes":{
						"POSITION":32,
						"NORMAL":33,
						"TEXCOORD_0":34
					},
					"indices":35,
					"material":8
				},
				{
					"attributes":{
						"POSITION":36,
						"NORMAL":37,
						"TEXCOORD_0":38
					},
					"indices":39,
					"material":9
				}
			]
		},
		{
			"name":"Gear",
			"primitives":[
				{
					"attributes":{
						"POSITION":40,
						"NORMAL":41,
						"TEXCOORD_0":42
					},
					"indices":43,
					"material":10
				},
				{
					"attributes":{
						"POSITION":44,
						"NORMAL":45,
						"TEXCOORD_0":46
					},
					"indices":47,
					"material":11
				},
				{
					"attributes":{
						"POSITION":48,
						"NORMAL":49,
						"TEXCOORD_0":50
					},
					"indices":51,
					"material":12
				},
				{
					"attributes":{
						"POSITION":52,
						"NORMAL":53,
						"TEXCOORD_0":54
					},
					"indices":55,
					"material":13
				},
				{
					"attributes":{
						"POSITION":56,
						"NORMAL":57,
						"TEXCOORD_0":58
					},
					"indices":59,
					"material":14
				}
			]
		}
	],
	"accessors":[
		{
			"bufferView":0,
			"componentType":5126,
			"count":90,
			"max":[
				1.0019515752792358,
				0.5462762713432312,
				1
			],
			"min":[
				-1,
				0,
				-1
			],
			"type":"VEC3"
		},
		{
			"bufferView":1,
			"componentType":5126,
			"count":90,
			"type":"VEC3"
		},
		{
			"bufferView":2,
			"componentType":5126,
			"count":90,
			"type":"VEC2"
		},
		{
			"bufferView":3,
			"componentType":5123,
			"count":390,
			"type":"SCALAR"
		},
		{
			"bufferView":4,
			"componentType":5126,
			"count":6792,
			"max":[
				12.586475372314453,
				15.28179931640625,
				4.30601692199707
			],
			"min":[
				-4.288983345031738,
				5.623945713043213,
				-4.291118621826172
			],
			"type":"VEC3"
		},
		{
			"bufferView":5,
			"componentType":5126,
			"count":6792,
			"type":"VEC3"
		},
		{
			"bufferView":6,
			"componentType":5126,
			"count":6792,
			"type":"VEC2"
		},
		{
			"bufferView":7,
			"componentType":5123,
			"count":10188,
			"type":"SCALAR"
		},
		{
			"bufferView":8,
			"componentType":5126,
			"count":3048,
			"max":[
				12.586475372314453,
				15.28179931640625,
				4.30601692199707
			],
			"min":[
				-4.288983345031738,
				5.623945713043213,
				-4.291118621826172
			],
			"type":"VEC3"
		},
		{
			"bufferView":9,
			"componentType":5126,
			"count":3048,
			"type":"VEC3"
		},
		{
			"bufferView":10,
			"componentType":5126,
			"count":3048,
			"type":"VEC2"
		},
		{
			"bufferView":11,
			"componentType":5123,
			"count":4572,
			"type":"SCALAR"
		},
		{
			"bufferView":12,
			"componentType":5126,
			"count":816,
			"max":[
				12.586475372314453,
				15.28179931640625,
				4.30601692199707
			],
			"min":[
				-4.288983345031738,
				5.623945713043213,
				-4.291118621826172
			],
			"type":"VEC3"
		},
		{
			"bufferView":13,
			"componentType":5126,
			"count":816,
			"type":"VEC3"
		},
		{
			"bufferView":14,
			"componentType":5126,
			"count":816,
			"type":"VEC2"
		},
		{
			"bufferView":15,
			"componentType":5123,
			"count":1224,
			"type":"SCALAR"
		},
		{
			"bufferView":16,
			"componentType":5126,
			"count":1440,
			"max":[
				12.586475372314453,
				15.28179931640625,
				4.30601692199707
			],
			"min":[
				-4.288983345031738,
				5.623945713043213,
				-4.291118621826172
			],
			"type":"VEC3"
		},
		{
			"bufferView":17,
			"componentType":5126,
			"count":1440,
			"type":"VEC3"
		},
		{
			"bufferView":18,
			"componentType":5126,
			"count":1440,
			"type":"VEC2"
		},
		{
			"bufferView":19,
			"componentType":5123,
			"count":2160,
			"type":"SCALAR"
		},
		{
			"bufferView":20,
			"componentType":5126,
			"count":864,
			"max":[
				12.586475372314453,
				15.28179931640625,
				4.30601692199707
			],
			"min":[
				-4.288983345031738,
				5.623945713043213,
				-4.291118621826172
			],
			"type":"VEC3"
		},
		{
			"bufferView":21,
			"componentType":5126,
			"count":864,
			"type":"VEC3"
		},
		{
			"bufferView":22,
			"componentType":5126,
			"count":864,
			"type":"VEC2"
		},
		{
			"bufferView":23,
			"componentType":5123,
			"count":1296,
			"type":"SCALAR"
		},
		{
			"bufferView":24,
			"componentType":5126,
			"count":1176,
			"max":[
				12.586475372314453,
				15.28179931640625,
				4.30601692199707
			],
			"min":[
				-4.288983345031738,
				8.250575065612793,
				-4.291118621826172
			],
			"type":"VEC3"
		},
		{
			"bufferView":25,
			"componentType":5126,
			"count":1176,
			"type":"VEC3"
		},
		{
			"bufferView":26,
			"componentType":5126,
			"count":1176,
			"type":"VEC2"
		},
		{
			"bufferView":27,
			"componentType":5123,
			"count":1764,
			"type":"SCALAR"
		},
		{
			"bufferView":28,
			"componentType":5126,
			"count":2613,
			"max":[
				1.3715938329696655,
				0.6360650062561035,
				0.6573904156684875
			],
			"min":[
				-1.377884030342102,
				-1.9591859579086304,
				-1.3620471954345703
			],
			"type":"VEC3"
		},
		{
			"bufferView":29,
			"componentType":5126,
			"count":2613,
			"type":"VEC3"
		},
		{
			"bufferView":30,
			"componentType":5126,
			"count":2613,
			"type":"VEC2"
		},
		{
			"bufferView":31,
			"componentType":5123,
			"count":6192,
			"type":"SCALAR"
		},
		{
			"bufferView":32,
			"componentType":5126,
			"count":1321,
			"max":[
				1.1664793491363525,
				0.8550560474395752,
				0.6248981952667236
			],
			"min":[
				-1.172769546508789,
				-1.959831714630127,
				-1.488327980041504
			],
			"type":"VEC3"
		},
		{
			"bufferView":33,
			"componentType":5126,
			"count":1321,
			"type":"VEC3"
		},
		{
			"bufferView":34,
			"componentType":5126,
			"count":1321,
			"type":"VEC2"
		},
		{
			"bufferView":35,
			"componentType":5123,
			"count":2352,
			"type":"SCALAR"
		},
		{
			"bufferView":36,
			"componentType":5126,
			"count":432,
			"max":[
				0.303862601518631,
				0.6040911674499512,
				0.004027575254440308
			],
			"min":[
				-0.30861929059028625,
				-0.10223186016082764,
				-1.459888219833374
			],
			"type":"VEC3"
		},
		{
			"bufferView":37,
			"componentType":5126,
			"count":432,
			"type":"VEC3"
		},
		{
			"bufferView":38,
			"componentType":5126,
			"count":432,
			"type":"VEC2"
		},
		{
			"bufferView":39,
			"componentType":5123,
			"count":732,
			"type":"SCALAR"
		},
		{
			"bufferView":40,
			"componentType":5126,
			"count":1482,
			"max":[
				35.654876708984375,
				10.129528045654297,
				25.3216552734375
			],
			"min":[
				9.541640281677246,
				-177.20733642578125,
				-25.3216552734375
			],
			"type":"VEC3"
		},
		{
			"bufferView":41,
			"componentType":5126,
			"count":1482,
			"type":"VEC3"
		},
		{
			"bufferView":42,
			"componentType":5126,
			"count":1482,
			"type":"VEC2"
		},
		{
			"bufferView":43,
			"componentType":5123,
			"count":2400,
			"type":"SCALAR"
		},
		{
			"bufferView":44,
			"componentType":5126,
			"count":1302,
			"max":[
				9.599100112915039,
				9.308686256408691,
				25.3216552734375
			],
			"min":[
				-4.289432525634766,
				-175.59947204589844,
				-25.3216552734375
			],
			"type":"VEC3"
		},
		{
			"bufferView":45,
			"componentType":5126,
			"count":1302,
			"type":"VEC3"
		},
		{
			"bufferView":46,
			"componentType":5126,
			"count":1302,
			"type":"VEC2"
		},
		{
			"bufferView":47,
			"componentType":5123,
			"count":2046,
			"type":"SCALAR"
		},
		{
			"bufferView":48,
			"componentType":5126,
			"count":1726,
			"max":[
				4.535817623138428,
				1.2972444295883179,
				4.068661212921143
			],
			"min":[
				-3.601504325866699,
				0.0001812822447391227,
				-4.068661212921143
			],
			"type":"VEC3"
		},
		{
			"bufferView":49,
			"componentType":5126,
			"count":1726,
			"type":"VEC3"
		},
		{
			"bufferView":50,
			"componentType":5126,
			"count":1726,
			"type":"VEC2"
		},
		{
			"bufferView":51,
			"componentType":5123,
			"count":1968,
			"type":"SCALAR"
		},
		{
			"bufferView":52,
			"componentType":5126,
			"count":232,
			"max":[
				55.66582489013672,
				-160.62008666992188,
				1.8955634832382202
			],
			"min":[
				29.06464385986328,
				-162.65806579589844,
				-1.929959774017334
			],
			"type":"VEC3"
		},
		{
			"bufferView":53,
			"componentType":5126,
			"count":232,
			"type":"VEC3"
		},
		{
			"bufferView":54,
			"componentType":5126,
			"count":232,
			"type":"VEC2"
		},
		{
			"bufferView":55,
			"componentType":5123,
			"count":456,
			"type":"SCALAR"
		},
		{
			"bufferView":56,
			"componentType":5126,
			"count":136,
			"max":[
				33.986454010009766,
				10.129528045654297,
				25.3216552734375
			],
			"min":[
				14.634099960327148,
				-177.20733642578125,
				-25.3216552734375
			],
			"type":"VEC3"
		},
		{
			"bufferView":57,
			"componentType":5126,
			"count":136,
			"type":"VEC3"
		},
		{
			"bufferView":58,
			"componentType":5126,
			"count":136,
			"type":"VEC2"
		},
		{
			"bufferView":59,
			"componentType":5123,
			"count":294,
			"type":"SCALAR"
		}
	],
	"bufferViews":[
		{
			"buffer":0,
			"byteLength":1080,
			"byteOffset":0,
			"target":34962
		},
		{
			"buffer":0,
			"byteLength":1080,
			"byteOffset":1080,
			"target":34962
		},
		{
			"buffer":0,
			"byteLength":720,
			"byteOffset":2160,
			"target":34962
		},
		{
			"buffer":0,
			"byteLength":780,
			"byteOffset":2880,
			"target":34963
		},
		{
			"buffer":0,
			"byteLength":81504,
			"byteOffset":3660,
			"target":34962
		},
		{
			"buffer":0,
			"byteLength":81504,
			"byteOffset":85164,
			"target":34962
		},
		{
			"buffer":0,
			"byteLength":54336,
			"byteOffset":166668,
			"target":34962
		},
		{
			"buffer":0,
			"byteLength":20376,
			"byteOffset":221004,
			"target":34963
		},
		{
			"buffer":0,
			"byteLength":36576,
			"byteOffset":241380,
			"target":34962
		},
		{
			"buffer":0,
			"byteLength":36576,
			"byteOffset":277956,
			"target":34962
		},
		{
			"buffer":0,
			"byteLength":24384,
			"byteOffset":314532,
			"target":34962
		},
		{
			"buffer":0,
			"byteLength":9144,
			"byteOffset":338916,
			"target":34963
		},
		{
			"buffer":0,
			"byteLength":9792,
			"byteOffset":348060,
			"target":34962
		},
		{
			"buffer":0,
			"byteLength":9792,
			"byteOffset":357852,
			"target":34962
		},
		{
			"buffer":0,
			"byteLength":6528,
			"byteOffset":367644,
			"target":34962
		},
		{
			"buffer":0,
			"byteLength":2448,
			"byteOffset":374172,
			"target":34963
		},
		{
			"buffer":0,
			"byteLength":17280,
			"byteOffset":376620,
			"target":34962
		},
		{
			"buffer":0,
			"byteLength":17280,
			"byteOffset":393900,
			"target":34962
		},
		{
			"buffer":0,
			"byteLength":11520,
			"byteOffset":411180,
			"target":34962
		},
		{
			"buffer":0,
			"byteLength":4320,
			"byteOffset":422700,
			"target":34963
		},
		{
			"buffer":0,
			"byteLength":10368,
			"byteOffset":427020,
			"target":34962
		},
		{
			"buffer":0,
			"byteLength":10368,
			"byteOffset":437388,
			"target":34962
		},
		{
			"buffer":0,
			"byteLength":6912,
			"byteOffset":447756,
			"target":34962
		},
		{
			"buffer":0,
			"byteLength":2592,
			"byteOffset":454668,
			"target":34963
		},
		{
			"buffer":0,
			"byteLength":14112,
			"byteOffset":457260,
			"target":34962
		},
		{
			"buffer":0,
			"byteLength":14112,
			"byteOffset":471372,
			"target":34962
		},
		{
			"buffer":0,
			"byteLength":9408,
			"byteOffset":485484,
			"target":34962
		},
		{
			"buffer":0,
			"byteLength":3528,
			"byteOffset":494892,
			"target":34963
		},
		{
			"buffer":0,
			"byteLength":31356,
			"byteOffset":498420,
			"target":34962
		},
		{
			"buffer":0,
			"byteLength":31356,
			"byteOffset":529776,
			"target":34962
		},
		{
			"buffer":0,
			"byteLength":20904,
			"byteOffset":561132,
			"target":34962
		},
		{
			"buffer":0,
			"byteLength":12384,
			"byteOffset":582036,
			"target":34963
		},
		{
			"buffer":0,
			"byteLength":15852,
			"byteOffset":594420,
			"target":34962
		},
		{
			"buffer":0,
			"byteLength":15852,
			"byteOffset":610272,
			"target":34962
		},
		{
			"buffer":0,
			"byteLength":10568,
			"byteOffset":626124,
			"target":34962
		},
		{
			"buffer":0,
			"byteLength":4704,
			"byteOffset":636692,
			"target":34963
		},
		{
			"buffer":0,
			"byteLength":5184,
			"byteOffset":641396,
			"target":34962
		},
		{
			"buffer":0,
			"byteLength":5184,
			"byteOffset":646580,
			"target":34962
		},
		{
			"buffer":0,
			"byteLength":3456,
			"byteOffset":651764,
			"target":34962
		},
		{
			"buffer":0,
			"byteLength":1464,
			"byteOffset":655220,
			"target":34963
		},
		{
			"buffer":0,
			"byteLength":17784,
			"byteOffset":656684,
			"target":34962
		},
		{
			"buffer":0,
			"byteLength":17784,
			"byteOffset":674468,
			"target":34962
		},
		{
			"buffer":0,
			"byteLength":11856,
			"byteOffset":692252,
			"target":34962
		},
		{
			"buffer":0,
			"byteLength":4800,
			"byteOffset":704108,
			"target":34963
		},
		{
			"buffer":0,
			"byteLength":15624,
			"byteOffset":708908,
			"target":34962
		},
		{
			"buffer":0,
			"byteLength":15624,
			"byteOffset":724532,
			"target":34962
		},
		{
			"buffer":0,
			"byteLength":10416,
			"byteOffset":740156,
			"target":34962
		},
		{
			"buffer":0,
			"byteLength":4092,
			"byteOffset":750572,
			"target":34963
		},
		{
			"buffer":0,
			"byteLength":20712,
			"byteOffset":754664,
			"target":34962
		},
		{
			"buffer":0,
			"byteLength":20712,
			"byteOffset":775376,
			"target":34962
		},
		{
			"buffer":0,
			"byteLength":13808,
			"byteOffset":796088,
			"target":34962
		},
		{
			"buffer":0,
			"byteLength":3936,
			"byteOffset":809896,
			"target":34963
		},
		{
			"buffer":0,
			"byteLength":2784,
			"byteOffset":813832,
			"target":34962
		},
		{
			"buffer":0,
			"byteLength":2784,
			"byteOffset":816616,
			"target":34962
		},
		{
			"buffer":0,
			"byteLength":1856,
			"byteOffset":819400,
			"target":34962
		},
		{
			"buffer":0,
			"byteLength":912,
			"byteOffset":821256,
			"target":34963
		},
		{
			"buffer":0,
			"byteLength":1632,
			"byteOffset":822168,
			"target":34962
		},
		{
			"buffer":0,
			"byteLength":1632,
			"byteOffset":823800,
			"target":34962
		},
		{
			"buffer":0,
			"byteLength":1088,
			"byteOffset":825432,
			"target":34962
		},
		{
			"buffer":0,
			"byteLength":588,
			"byteOffset":826520,
			"target":34963
		}
	],
	"buffers":[
		{
			"byteLength":827108,
			"uri":"cargoShip.bin"
		}
	]
}
